<?xml version="1.0" encoding="UTF-8" standalone="no"?>
<!-- Created with Inkscape (http://www.inkscape.org/) -->

<svg
   xmlns:dc="http://purl.org/dc/elements/1.1/"
   xmlns:cc="http://creativecommons.org/ns#"
   xmlns:rdf="http://www.w3.org/1999/02/22-rdf-syntax-ns#"
   xmlns:svg="http://www.w3.org/2000/svg"
   xmlns="http://www.w3.org/2000/svg"
   xmlns:sodipodi="http://sodipodi.sourceforge.net/DTD/sodipodi-0.dtd"
   xmlns:inkscape="http://www.inkscape.org/namespaces/inkscape"
   width="400"
   height="400"
   viewBox="0 0 400 400.00001"
   id="svg2"
   version="1.1"
   inkscape:version="0.91 r13725"
   sodipodi:docname="gull.svg"
   inkscape:export-filename="C:\Users\Mikael\workspace\gull-twitch-utility\src\public\gull_16.png"
   inkscape:export-xdpi="3.5999999"
   inkscape:export-ydpi="3.5999999">
  <defs
     id="defs4" />
  <sodipodi:namedview
     id="base"
     pagecolor="#ffffff"
     bordercolor="#666666"
     borderopacity="1.0"
     inkscape:pageopacity="0.0"
     inkscape:pageshadow="2"
     inkscape:zoom="1.4"
     inkscape:cx="119.96526"
     inkscape:cy="145.73513"
     inkscape:document-units="px"
     inkscape:current-layer="layer1"
     showgrid="true"
     units="px"
     inkscape:window-width="1920"
     inkscape:window-height="1017"
     inkscape:window-x="-8"
     inkscape:window-y="-8"
     inkscape:window-maximized="1">
    <inkscape:grid
       type="xygrid"
       id="grid4138" />
  </sodipodi:namedview>
  <metadata
     id="metadata7">
    <rdf:RDF>
      <cc:Work
         rdf:about="">
        <dc:format>image/svg+xml</dc:format>
        <dc:type
           rdf:resource="http://purl.org/dc/dcmitype/StillImage" />
        <dc:title></dc:title>
      </cc:Work>
    </rdf:RDF>
  </metadata>
  <g
     inkscape:label="Layer 1"
     inkscape:groupmode="layer"
     id="layer1"
     transform="translate(0,-652.36216)"
     style="opacity:1">
    <rect
       style="fill:#000000;fill-opacity:1;stroke:#000000;stroke-opacity:1"
       id="rect4805"
       width="360"
       height="330"
       x="20"
       y="702.36218"
       ry="9.9999771"
       inkscape:export-xdpi="14.4"
       inkscape:export-ydpi="14.4" />
    <rect
       style="fill:#ffffff;fill-opacity:1;stroke:#000000;stroke-width:0.97064483;stroke-opacity:1"
       id="rect4158"
       width="301.45792"
       height="290.02936"
       x="39.985321"
       y="722.34753"
       ry="30.003014"
       rx="28.261681"
       inkscape:export-xdpi="14.4"
       inkscape:export-ydpi="14.4" />
    <g
       transform="matrix(0.52980311,0,0,0.52980311,-171.93423,645.925)"
       id="layer2"
       style=""
       inkscape:export-xdpi="14.4"
       inkscape:export-ydpi="14.4">
      <path
         inkscape:connector-curvature="0"
         id="rect4148"
         d="m 594.15406,403.80208 c 28.61814,-9.76107 12.89346,-41.74137 178.97976,-90.15201 2.81489,-0.82048 7.55433,-7.42086 7.10046,-13.16152 -0.80112,-10.13271 -4.08633,-27.86949 7.25641,-47.81544 9.39428,-16.51961 21.41768,-23.31937 35.92655,-27.22915 13.996,-3.77157 28.86679,0.41502 43.16204,5.29643 16.1361,5.51001 27.09856,20.55642 38.19305,28.13758 1.46797,0.30209 26.78205,5.06422 34.50211,11.39488 7.57666,6.21308 9.93525,12.71927 8.34452,13.1383 -1.08175,0.28495 -7.11158,-0.46559 -11.05024,-0.47114 -3.95166,-0.006 -7.44003,0.52925 -8.89076,0.18563 -12.17915,-2.88465 -24.86826,-6.03589 -36.94281,-2.13034 -3.77448,1.22086 -8.14825,5.675 -9.78826,7.01372 -1.32944,1.08521 -3.69023,1.01418 -4.74807,2.36549 -2.25756,2.88385 -4.78177,6.8099 -4.77165,10.33381 0.009,3.00292 3.43746,1.95085 7.39603,23.89086 6.6485,36.84873 -16.15991,93.25836 -23.48811,102.05299 -3.03119,3.63775 -6.18853,9.02426 -9.58342,12.3842 -11.0843,10.97018 -21.07427,20.88953 -33.87104,28.82887 -19.75887,12.25874 -42.83697,19.32898 -65.51279,23.96412 -3.16709,5.38481 -5.07283,11.35618 -4.75356,17.34138 0.17334,3.24955 3.00819,4.68304 3.56785,9.08722 0.46755,3.6793 -3.4755,5.41713 -3.24308,10.64356 0.21539,4.84356 1.11419,9.97496 1.59327,14.78781 1.33624,13.42367 1.8328,25.94311 4.37803,35.93803 0.18691,0.73399 1.24781,0.2762 1.72463,1.48368 0.45792,1.15964 -0.56406,2.00195 0.18143,2.52059 1.00694,0.70054 3.07206,0.95974 4.65085,0.95163 1.92062,-0.01 3.51886,-1.82291 5.43773,-1.90559 2.06408,-0.0889 5.41043,0.48744 6.00386,1.53912 1.6964,0.51193 2.93416,2.45423 3.10077,4.19121 10.6067,2.6136 21.08133,5.56206 31.15894,8.27529 0.4785,0.12883 0.87989,0.38377 1.35693,0.6883 2.00104,0.13266 4.22807,0.53603 5.57306,1.97696 1.39066,1.48988 2.85716,4.10664 1.64281,5.88936 -1.50892,-0.90755 -2.6273,-2.93239 -4.02583,-3.19909 -0.0607,0.9035 0.018,2.0594 -0.72399,2.52303 -1.25153,0.78197 -2.89862,-0.5633 -4.36006,-0.76824 -1.50991,-0.21175 -4.13809,-0.99285 -4.54924,-0.47595 -0.50601,0.63617 0.81223,1.29521 1.4917,1.92919 2.24845,-0.0762 4.57992,0.47271 5.89317,2.09142 1.07208,1.32142 1.76139,4.17304 0.67903,5.05949 -1.56745,-1.37683 -1.48678,-2.3553 -2.71695,-2.66857 -1.18139,-0.30084 -2.35723,1.37782 -3.51715,1.00264 -20.18981,-6.53053 -38.51265,-11.34525 -56.98187,-15.13662 -1.33579,-0.27421 -2.07838,-1.92655 -2.77032,-3.01014 -7.40979,0.11384 -12.77777,0.53271 -15.90331,-3.54587 -1.72342,-2.24894 -0.71915,-4.7453 -1.04529,-5.19367 -0.47512,-0.65316 -1.83101,0.62834 -2.82915,0.76313 -0.39019,-2.41011 -0.23058,-3.98977 0.3722,-5.84755 0.3225,-0.99396 1.162,-1.73949 1.67562,-2.64952 0.55873,-0.98994 1.45916,-1.98579 1.52538,-3.05003 1.11056,-17.84816 1.83339,-38.02113 -2.85371,-56.71477 -0.28288,-1.1282 -1.18629,-2.02376 -1.30352,-3.15587 -0.25256,-2.43888 1.35546,-7.2298 1.35546,-7.2298 0,0 -3.14771,1.01425 -4.70225,0.75907 -2.65601,-0.43599 -5.3515,-2.55581 -11.50782,-2.77735 -5.79963,-0.20869 -13.51834,2.01604 -23.05415,3.95784 -2.80435,0.57106 -9.20179,1.13703 -9.74705,0.71563 -0.733,-0.56651 5.60091,-3.02528 2.4298,-3.02148 -5.21565,0.006 -12.27454,1.2626 -17.66595,1.82673 -3.46671,0.36273 -1.73669,-0.88999 -1.36255,-1.50923 0.2775,-0.4593 -1.46573,-0.24308 -3.52191,-0.31569 -4.0872,-0.14432 -11.00121,1.10201 -13.49667,0.65839 -3.49291,-0.62095 3.3807,-1.47248 3.03946,-1.86366 -0.39858,-0.45692 -9.87738,-1.48353 -14.33067,-1.5425 -4.17903,-0.0553 -5.61313,0.2218 -5.66122,-0.29048 -0.0717,-0.76405 3.32836,-0.94804 3.07964,-1.19339 -0.21742,-0.21448 -1.05813,-0.28859 -3.65419,-0.55394 -19.74975,-2.01871 -38.02786,-3.08035 -38.39102,-3.17016 -1.56368,-0.38669 -27.03858,5.47449 -31.53074,4.07592 -1.60282,-0.49902 5.83251,-2.24448 5.79488,-2.40791 -0.23436,-1.01783 -7.60649,0.20182 -7.75052,-0.35194 -0.3418,-1.31405 10.94992,-5.34219 6.28441,-4.68201 -22.8026,3.22663 -42.09722,9.54173 -62.84982,12.15679 -0.63974,0.0806 -3.47216,-0.10639 -3.28379,-0.41009 0.43123,-0.69527 1.05617,-0.90757 1.32419,-1.14806 -0.375,-0.24808 -1.68327,0.025 -1.85124,-0.60174 -0.17691,-0.66012 1.271,-1.23374 1.37156,-1.52391 -0.4067,-0.19819 -3.03206,0.0303 -3.1272,-0.6713 -0.0827,-0.60964 1.32316,-0.8026 1.53099,-1.03075 -0.22545,-0.205 -2.98037,-0.31252 -3.12769,-0.89836 -0.27329,-1.08678 3.1066,-2.06161 4.46877,-3.4354 -0.47836,-0.0705 -0.99711,-0.0726 -1.35979,0.011 -20.18925,4.65187 -36.72298,5.86145 -48.63702,7.24753 -9.94436,1.15693 -15.23942,3.88251 -16.67299,1.37987 -1.73884,-3.03557 18.16121,-11.28329 32.64899,-16.88982 -7.47245,-0.68861 -27.26898,4.26125 -32.3688,2.45616 -2.59865,-1.22312 2.40085,-2.54472 2.23586,-4.39856 -0.0678,-0.76224 -1.09993,-0.62113 -0.48855,-2.14497 0.44759,-1.11556 5.05699,-3.10158 7.62825,-4.119 3.75079,-1.48414 12.13102,-4.21022 22.46658,-7.44494 16.94186,-5.3023 38.77299,-11.85416 51.37994,-18.70337 1.73716,-0.94377 4.8289,0.47675 6.1314,-0.36406 0.56972,-0.36777 0.59178,-1.25315 1.07944,-1.72434 23.06177,-22.28275 54.63182,-38.45449 83.24997,-48.21556 z"
         style="color:#000000;display:inline;overflow:visible;visibility:visible;opacity:1;fill:#000000;fill-opacity:1;fill-rule:nonzero;stroke:none;stroke-width:6.5;stroke-linecap:round;stroke-linejoin:miter;stroke-miterlimit:4;stroke-dasharray:none;stroke-dashoffset:0;stroke-opacity:1;marker:none;enable-background:accumulate" />
    </g>
    <path
       style="fill:none;fill-rule:evenodd;stroke:#000000;stroke-width:3;stroke-linecap:butt;stroke-linejoin:miter;stroke-opacity:1;stroke-miterlimit:4;stroke-dasharray:none"
       d="m 200,702.36216 -30,-30"
       id="path4807"
       inkscape:connector-curvature="0"
       inkscape:export-xdpi="14.4"
       inkscape:export-ydpi="14.4" />
    <path
       style="fill:none;fill-rule:evenodd;stroke:#000000;stroke-width:3;stroke-linecap:butt;stroke-linejoin:miter;stroke-opacity:1;stroke-miterlimit:4;stroke-dasharray:none"
       d="m 200,702.36216 30,-30"
       id="path4809"
       inkscape:connector-curvature="0"
       inkscape:export-xdpi="14.4"
       inkscape:export-ydpi="14.4" />
    <circle
       style="fill:#ffffff;fill-opacity:1;stroke:#ffffff;stroke-width:1;stroke-miterlimit:4;stroke-dasharray:none;stroke-opacity:1"
       id="path4815"
       cx="360"
       cy="732.36218"
       r="10"
       inkscape:export-xdpi="14.4"
       inkscape:export-ydpi="14.4" />
    <circle
       style="fill:#ffffff;fill-opacity:1;stroke:#ffffff;stroke-width:1;stroke-miterlimit:4;stroke-dasharray:none;stroke-opacity:1"
       id="path4817"
       cx="360"
       cy="762.36218"
       r="10"
       inkscape:export-xdpi="14.4"
       inkscape:export-ydpi="14.4" />
  </g>
</svg>
